# xmcd
#
# Track frame offsets:
# 150
# 14839
# 24559
# 41309
# 52743
# 70289
# 84156
# 113762
# 123720
# 145871
# 164042
# 176955
# 195964
# 206488
# 217601
# 224282
# 247001
#
# Disc length: 3434 seconds
#
#
# Revision: 0
# Processed by: cddbd v1.5.2PL0 Copyright (c) Steve Scherf et al.
# Submitted via: FreeRIP 2.951 
#
DISCID=f10d6811
DTITLE=Pavel Steffal and Emanuel Kummel - Music on twelwe strings
DYEAR=2005
DGENRE=
TTITLE0=Gabriel Faure: Dolly I. Berceuse
TTITLE1=Gabriel Faure: Dolly II. Mi-a-ou
TTITLE2=Gabriel Faure: Dolly III. Le jardin de Dolly
TTITLE3=Gabriel Faure: Dolly IV. Kitty-Valse
TTITLE4=Gabriel Faure: Dolly V. Tendresse
TTITLE5=Gabriel Faure: Dolly VI. Le pas espagnol
TTITLE6=Maurice Ravel: Menuet antiqua
TTITLE7=Isaac Albeniz: Tango op. 165, No. 2
TTITLE8=Isaac Albeniz: Tango op. 164, No. 2
TTITLE9=Pieter van der Staak: Quito
TTITLE10=Pieter van der Staak: Lima
TTITLE11=Pieter van der Staak: Caracas
TTITLE12=Pieter van der Staak: Santiago
TTITLE13=Pieter van der Staak: Rio
TTITLE14=Luigi Boccherini: Introduction et Fandango I. Introduction
TTITLE15=Luigi Boccherini: Introduction et Fandango II. Fandango
TTITLE16=Manuel Mario Ponce: Scherzino Mexicano
EXTD=
EXTT0=
EXTT1=
EXTT2=
EXTT3=
EXTT4=
EXTT5=
EXTT6=
EXTT7=
EXTT8=
EXTT9=
EXTT10=
EXTT11=
EXTT12=
EXTT13=
EXTT14=
EXTT15=
EXTT16=
PLAYORDER=
